<?xml version="1.0" encoding="utf-8"?>
<!-- Generator: Adobe Illustrator 17.1.0, SVG Export Plug-In . SVG Version: 6.00 Build 0)  -->
<!DOCTYPE svg PUBLIC "-//W3C//DTD SVG 1.1//EN" "http://www.w3.org/Graphics/SVG/1.1/DTD/svg11.dtd">
<svg version="1.1" id="Layer_1" xmlns="http://www.w3.org/2000/svg" xmlns:xlink="http://www.w3.org/1999/xlink" x="0px" y="0px"
	 viewBox="0 0 180 260" enable-background="new 0 0 180 260" xml:space="preserve">
<rect x="17" y="34" transform="matrix(0.9986 -5.233596e-02 5.233596e-02 0.9986 -4.6698 6.6688)" fill="none" width="216" height="117"/>
<text transform="matrix(0.9986 -5.233596e-02 5.233596e-02 0.9986 15.1747 60.5036)"><tspan x="0" y="0" font-family="'GalaxiePolaris-Bold'" font-size="26" letter-spacing="-1">Hybrid </tspan><tspan x="0" y="23" font-family="'GalaxiePolaris-Bold'" font-size="26" letter-spacing="-1">vs. Native</tspan><tspan x="0" y="40" font-family="'GalaxiePolaris-Book'" font-size="13">AS OF MID 2014</tspan><tspan x="113.7" y="40" font-family="'GalaxiePolaris-Bold'" font-size="13"> </tspan></text>
<g transform="translate(0.000000,683.000000) scale(0.100000,-0.100000)">
	<path d="M806.6,5578.3c-224.6-30.3-207.9-29-210.5-11.6c-1.3,11.6-6.4,16.1-19.3,17.4c-15.4,1.9-17.4-0.6-19.3-19.3l-1.9-21.2
		l-77.2-10.9c-136.5-18.7-251-38-255.5-42.5c-2.6-2.6-1.9-25.1,1.3-49.6c3.2-25.1,10.3-85,16.1-133.2l10.9-88.8h33.5
		c34.8,0,124.9,10.9,244,29.6c38,5.8,70.8,9.7,72.1,7.7c1.9-1.9,4.5-18.7,6.4-38c1.9-19.3,9-77.9,16.1-130.7
		c7.1-52.1,12.9-99.1,12.9-103.6c0-10.3-65-38.6-127.4-54.7c-27-7.1-50.9-12.9-54.1-12.9c-9,0-5.8,19.3,11.6,70.2
		c14.8,44.4,16.1,52.1,9,77.9c-10.3,37.3-37.3,61.8-79.8,71.4c-85,18.7-155.8-42.5-184.7-158.3c-4.5-17.4-10.3-34.8-12.9-38
		c-8.4-9.7-50.9,21.9-63.1,47c-20,39.3-21.9,62.4-10.3,113.3c12.9,53.4,10.3,69.5-10.9,66.3c-21.9-3.2-33.5-33.5-33.5-88.8
		c0.6-77.2,35.4-134.5,94-153.8l21.9-7.1l-2.6-60.5c-4.5-103.6,14.2-177.7,59.9-233c20.6-25.1,21.9-29,14.8-45.7
		c-14.8-34.8-37.3-52.8-70.8-57.3c-16.7-2.6-30.9-6.4-30.9-9c0-10.9,30.3-48.3,41.2-50.2c10.3-1.9,11.6,0,7.7,14.2
		c-4.5,18.7,6.4,32.2,39.9,52.1c10.9,6.4,25.1,21.9,31.5,33.5c9,16.7,14.8,21.2,24.5,18c48.3-14.8,90.1-8.4,128.1,18l18.7,13.5
		l15.4-19.3c23.8-29,34.1-52.1,37.3-81.1c3.2-32.2,11.6-42.5,25.7-30.9c20.6,17.4,1.9,69.5-41.8,113.3l-25.1,25.7l15.4,31.5
		c9,16.7,16.1,38.6,16.1,47c0,9-11.6,50.2-25.7,92c-14.2,41.8-25.7,84.3-25.7,94.6c0,18,0,18,63.1,25.7c34.1,4.5,76.6,12.2,94,17.4
		c34.8,10.3,42.5,7.1,42.5-20c0-15.4,50.2-385.6,54.7-406.2c1.9-8.4,7.7-14.8,12.9-14.8c14.2,0,12.2,22.5-18.7,254.3l-27,206
		l18.7,17.4c25.1,24.5,22.5,47.6-5.8,45.7l-20-1.9l-14.8,125.5c-8.4,68.9-13.5,126.8-10.9,129.4c2.6,2.6,44.4,10.9,92.7,19.3
		c180.9,30.3,249.8,43.1,254.9,47.6c5.1,4.5-18.7,254.3-25.1,264.6C956.6,5599.5,970.7,5600.8,806.6,5578.3z M348.9,4973.9
		c38.6-7.1,72.1-14.2,73.4-16.1c6.4-5.8-21.2-30.9-47-42.5c-29-13.5-72.1-15.4-95.3-5.1c-18.7,8.4-30.3,30.9-30.3,57.3
		C249.8,4991.3,253,4991.3,348.9,4973.9z"/>
	<path d="M-1250,5584.7c-54.7-2.6-209.8-9.7-344.4-15.4c-133.9-5.8-245.2-11.6-246.5-12.9c-1.9-1.3,3.2-17.4,10.9-34.8
		c16.1-38,16.7-53.4,3.2-92.7c-10.3-29.6-9.7-30.9,6.4-58.6c19.3-33.5,20.6-45.7,6.4-80.5c-9.7-24.5-9.7-25.7,10.9-61.8l20.6-36
		l-17.4-39.9l-16.7-39.3l20-28.3c19.3-27,20-29.6,12.2-53.4c-4.5-13.5-7.1-25.7-5.8-27c1.3-1.3,67.6,1.3,147.4,5.8
		c216.9,11.6,212.4,12.2,212.4-5.8c0-27.7-31.5-108.1-55.4-140.3c-23.2-31.5-74-68.2-85.6-61.2c-3.2,2.6-7.7,12.2-10.3,23.2
		c-1.9,10.3-12.9,30.3-23.2,44.4c-22.5,31.5-23.2,41.8-4.5,54.7c18,12.9,33.5,12.9,43.8,0.6c11.6-14.2,32.2-12.2,32.2,2.6
		c0,41.8-64.4,44.4-104.3,4.5c-16.1-16.7-18-16.7-35.4-7.7c-18,9-42.5,14.8-82.4,20c-30.3,3.9-98.5-9-127.4-23.2l-25.7-13.5
		l-29.6,14.8c-33.5,16.7-70.8,19.3-86.9,6.4c-12.9-10.3-14.2-52.1-1.9-52.1c4.5,0,14.8,7.1,22.5,16.1c16.7,19.3,39.9,20.6,56,3.2
		c10.9-11.6,10.3-13.5-3.2-41.8c-7.7-16.1-15.4-40.6-17.4-54.1c-3.2-22.5-6.4-26.4-30.9-36c-36-13.5-77.2-58.6-87.5-94.6
		c-12.9-48.3,13.5-115.2,41.2-104.3c14.8,5.1,20.6,32.2,11.6,51.5c-18.7,41.2,2.6,116.5,38.6,134.5c9.7,5.1,19.3,9.7,20.6,9.7
		c1.9,0,4.5-12.2,7.1-27c9.7-61.1,49.6-117.8,103.6-146.1l25.7-13.5v-50.2c0-47.6,0.6-49.6,15.4-51.5c15.4-2.6,15.4-2.6,11.6,46.3
		l-3.2,48.9h41.2h41.2v-48.3c0-45.1,0.6-48.3,13.5-48.3c13.5,0,14.2,1.9,10.3,50.9l-3.9,50.2l27,12.2c57.9,25.7,104.9,94,112,160.9
		c3.9,32.8,3.9,34.1,32.8,45.1c55.4,21.2,136.5,119.1,162.9,198.3l11.6,32.8l188.6,9c103.6,4.5,189.2,9,190.5,10.3
		c1.3,1.3-2.6,19.3-8.4,41.2c-6.4,25.7-8.4,50.2-5.8,71.4c3.2,26.4,1.9,35.4-10.9,55.4c-13.5,21.9-14.2,26.4-7.1,59.2
		c6.4,31.5,5.8,38.6-6.4,66.3l-13.5,31.5l13.5,31.5l12.9,31.5l-12.9,42.5c-13.5,43.8-12.9,50.2,10.9,108.8
		c4.5,10.3-1.3,10.9-65,10.3C-1118.7,5590.5-1195.3,5587.3-1250,5584.7z M-1678,4748.6c7.1-11.6-9.7-50.9-29-66.9
		c-39.9-32.8-106.2-25.7-133.2,14.8c-8.4,12.2-14.8,28.3-14.8,36.7c0,14.2,2.6,14.8,50.2,17.4C-1696.7,4755-1681.9,4755-1678,4748.6
		z"/>
	<path d="M-435.1,5452.8c-1.9-5.8-3.9-16.7-3.9-25.7c0-19.3,7.1-18-183.5-34.8c-85-7.7-159-14.8-164.1-16.7
		c-5.1-1.3-26.4-21.2-47.6-45.1l-37.3-41.8l36.7-33.5c20.6-18.7,41.2-36,45.7-38.6c7.1-3.9,63.1,0.6,307,24.5l31.5,3.2l-3.9-37.3
		c-2.6-20-7.1-79.8-10.3-133.2c-3.2-52.8-7.7-128.1-10.3-166.1l-4.5-69.5l-36-18c-32.8-16.7-134.5-52.1-149.3-52.1
		c-9,0-7.1,20.6,5.8,44.4c7.7,16.1,18.7,24.5,39.9,32.2c48.3,18,58.6,59.9,22.5,93.3c-9,8.4-16.1,21.2-16.1,28.3
		c0,18.7-11.6,46.3-18.7,46.3c-3.9,0-15.4-8.4-26.4-19.3c-28.3-27.7-43.1-25.1-57.9,9.7c-15.4,35.4-27,36.7-55.4,6.4
		c-25.1-27.7-44.4-29-59.2-3.2c-5.8,10.3-14.8,20.6-19.3,22.5c-10.9,3.9-39.9-10.3-39.9-20c0-10.3-25.1-28.3-39.9-28.3
		c-6.4,0-15.4,7.1-19.3,16.1s-12.2,16.1-18.7,16.1c-15.4,0-38-30.3-38-51.5c0-9.7-4.5-21.2-9-25.7c-5.1-3.9-12.9-17.4-16.7-29.6
		c-10.3-30.9,3.2-50.9,43.8-62.4c31.5-9.7,59.2-38.6,59.2-63.7c0-32.8-121.7,20.6-172.5,75.3c-18,19.3-36,35.4-39.9,35.4
		c-3.2,0-6.4-9.7-6.4-21.9c0-27,25.7-54.7,71.4-78.5c34.8-17.4,100.4-34.8,133.2-34.8h20.6v-46.3c0-41.8-3.9-78.5-16.1-151.9
		c-3.2-16.1-10.9-25.7-36-42.5c-20-13.5-29.6-23.8-25.1-26.4c3.9-2.6,29.6-5.8,57.3-7.7c57.3-3.9,66.9,1.9,46.3,27.7
		c-9.7,12.2-13.5,26.4-13.5,50.9c0,63.1,41.2,99.8,112.6,99.8c68.9,0,106.2-30.9,111.4-92c2.6-30.3,0.6-36.7-14.8-55.4
		c-12.9-14.2-16.1-22.5-10.9-27.7c7.1-7.1,100.4-5.1,107.5,2.6c2.6,2.6-5.8,13.5-18,23.8c-14.8,12.9-24.5,29.6-29,47
		c-10.9,44.4-21.9,141.6-19.3,168.6l1.9,25.7l69.5,10.9c38,5.8,77.9,14.2,89.5,18c10.9,3.9,21.2,5.8,23.2,4.5
		c1.3-1.9-0.6-47-4.5-100.4c-3.9-53.4-7.1-118.4-7.1-144.8c0-43.1,1.3-48.3,12.2-48.3c13.5,0,12.2-9.7,25.7,213.7
		c5.1,88.8,6.4,95.9,22.5,114.6c20.6,25.1,21.2,30.9,1.3,36c-14.2,3.2-14.8,5.8-12.2,43.1c14.8,205.3,19.3,262.6,22.5,265.2
		c3.2,3.2,48.9-2.6,238.8-32.2l62.4-9.7l50.9,25.7c28.3,14.2,52.8,28.3,55.4,32.2s-14.2,28.3-36,54.7c-32.2,38-45.7,48.9-63.7,52.8
		c-12.2,1.9-85,12.9-160.9,24.5l-138.4,20l2.6,65.7c1.9,55.4,0.6,65.7-7.7,65.7C-426.7,5463.1-433.1,5458.6-435.1,5452.8z
		 M-696.4,4870.3c0-3.9-10.9-18-24.5-31.5c-48.9-49.6-124.2-50.2-171.9-2.6c-12.2,12.2-22.5,25.1-22.5,28.3c0,3.2,38,7.1,85.6,8.4
		c46.3,0.6,95.9,2.6,109.4,3.2C-706.1,4876.7-696.4,4874.1-696.4,4870.3z"/>
	<path d="M1004.9,5356.2c-2.6-17.4-5.1-81.7-5.1-142.9c0-92,1.9-112,9.7-117.2c5.1-3.2,54.7-6.4,109.4-6.4h99.8l0.6-69.5
		c0-61.2,1.9-72.1,16.7-101.1c9-17.4,25.7-41.2,36.7-52.1c20.6-21.2,69.5-47.6,87.5-47.6c7.7,0,9.7-12.2,9.7-72.7
		c0-40.6,1.9-108.8,4.5-151.3c3.9-76.6,3.9-78.5-9.7-78.5c-16.7,0-43.8-23.8-49.6-43.1c-3.9-14.8-3.2-14.8,54.1-14.8
		c57.9,0,58.6,0,62.4,16.7c2.6,9.7,1.9,41.8-1.3,71.4c-4.5,36.7-3.9,56,0.6,58.6c9,6.4,160.3,9.7,188,4.5l23.2-3.9l-4.5-36.7
		c-2.6-20-5.8-53.4-8.4-73.4l-3.9-37.3h62.4h61.8v18c0,24.5-7.7,34.1-32.8,39.3c-21.2,4.5-21.9,5.1-21.9,34.8
		c0.6,16.7,1.3,83.7,1.9,148.7l1.3,118.4l38,14.2c44.4,16.1,78.5,48.9,94.6,90.1c12.9,30.9,16.1,95.9,7.1,137.1l-5.1,23.8H1962
		h128.7l-1.3,143.5l-1.9,142.9l-122.3,3.9c-66.9,2.6-309.6,6.4-538.8,9l-415.8,5.1L1004.9,5356.2z M1648.6,5083.3H1776l13.5-30.3
		c7.7-17.4,14.8-49.6,16.1-72.7c1.9-34.8,0-46.3-12.2-67.6c-13.5-23.2-68.2-67.6-83-67.6c-3.2,0-5.8,9.7-5.8,21.2
		c0,30.9-12.2,43.1-48.3,48.3c-36,5.1-33.5-1.3-27.7,72.1c1.9,20.6,0,22.5-16.1,24.5c-29.6,3.9-38-8.4-35.4-52.8l1.9-39.3l-47-1.9
		c-44.4-1.9-47-1.3-54.1,14.2c-5.8,13.5-5.1,21.2,3.9,41.8c14.2,31.5,9,50.2-15.4,55.4c-41.2,9-56-20.6-34.8-70.8
		c9-21.9,9-25.1,0-34.1c-5.1-5.1-20.6-11.6-34.1-13.5c-23.2-3.9-24.5-5.1-26.4-29.6c-1.3-14.2-4.5-27.7-7.1-30.9
		c-7.1-7.1-61.2,30.3-81.7,57.3c-17.4,22.5-18.7,27.7-18,85.6c0,34.1,3.9,70.2,7.7,80.5l8.4,18.7l120.4-3.9
		C1467,5085.2,1578.4,5083.3,1648.6,5083.3z M1543.6,4764c33.5,1.9,72.1,6.4,85.6,10.3c14.2,4.5,26.4,6.4,27.7,4.5
		c4.5-3.9-24.5-75.3-30.3-75.3c-2.6,0-6.4,2.6-9,6.4c-1.9,3.2-12.2,11.6-22.5,19.3l-18,12.9l-18.7-25.7
		c-9.7-14.2-21.2-25.7-25.1-25.7c-3.2,0-16.1,10.3-28.3,22.5l-21.9,22.5l-21.9-16.7c-24.5-18.7-28.3-16.7-38.6,20.6
		c-11.6,39.9-10.9,39.9,26.4,30.3C1472.2,4763.4,1501.1,4761.5,1543.6,4764z"/>
</g>
<rect x="30.3" y="133" transform="matrix(0.9945 -0.1045 0.1045 0.9945 -17.4707 9.6045)" fill="none" width="105.1" height="77"/>
<text transform="matrix(0.9945 -0.1045 0.1045 0.9945 27.8532 150.6393)" fill="#FFFFFF" font-family="'GalaxiePolaris-Bold'" font-size="15">go hybrid</text>
<rect x="88.3" y="144.2" fill="none" width="105.1" height="77"/>
<rect x="120.7" y="151.8" transform="matrix(0.9998 1.745241e-02 -1.745241e-02 0.9998 3.3481 -2.9943)" fill="none" width="105.1" height="77"/>
<text transform="matrix(0.9998 1.745241e-02 -1.745241e-02 0.9998 121.137 162.935)" fill="#FFFFFF" font-family="'GalaxiePolaris-Bold'" font-size="15">go native</text>
<circle fill="#FFFFFF" stroke="#000000" stroke-miterlimit="10" cx="42.5" cy="180.9" r="2.5"/>
<circle fill="#FFFFFF" stroke="#000000" stroke-miterlimit="10" cx="29.1" cy="180.9" r="2.5"/>
<circle fill="#FFFFFF" stroke="#000000" stroke-miterlimit="10" cx="145.1" cy="183.4" r="2.5"/>
<circle fill="#FFFFFF" stroke="#000000" stroke-miterlimit="10" cx="160.3" cy="185.9" r="2.5"/>
</svg>
