<?xml version="1.0" standalone="no"?>
<!DOCTYPE svg PUBLIC "-//W3C//DTD SVG 20010904//EN"
 "http://www.w3.org/TR/2001/REC-SVG-20010904/DTD/svg10.dtd">
<svg version="1.0" xmlns="http://www.w3.org/2000/svg"
 width="683.000000pt" height="683.000000pt" viewBox="0 0 683.000000 683.000000"
 preserveAspectRatio="xMidYMid meet">
<metadata>
Created by potrace 1.11, written by Peter Selinger 2001-2013
</metadata>
<g transform="translate(0.000000,683.000000) scale(0.100000,-0.100000)"
fill="#000000" stroke="none">
<path d="M4625 4279 c-349 -47 -323 -45 -327 -18 -2 18 -10 25 -30 27 -24 3
-27 -1 -30 -30 l-3 -33 -120 -17 c-212 -29 -390 -59 -397 -66 -4 -4 -3 -39 2
-77 5 -39 16 -132 25 -207 l17 -138 52 0 c54 0 194 17 379 46 59 9 110 15 112
12 3 -3 7 -29 10 -59 3 -30 14 -121 25 -203 11 -81 20 -154 20 -161 0 -16
-101 -60 -198 -85 -42 -11 -79 -20 -84 -20 -14 0 -9 30 18 109 23 69 25 81 14
121 -16 58 -58 96 -124 111 -132 29 -242 -66 -287 -246 -7 -27 -16 -54 -20
-59 -13 -15 -79 34 -98 73 -31 61 -34 97 -16 176 20 83 16 108 -17 103 -34 -5
-52 -52 -52 -138 1 -120 55 -209 146 -239 l34 -11 -4 -94 c-7 -161 22 -276 93
-362 32 -39 34 -45 23 -71 -23 -54 -58 -82 -110 -89 -26 -4 -48 -10 -48 -14 0
-17 47 -75 64 -78 16 -3 18 0 12 22 -7 29 10 50 62 81 17 10 39 34 49 52 14
26 23 33 38 28 75 -23 140 -13 199 28 l29 21 24 -30 c37 -45 53 -81 58 -126 5
-50 18 -66 40 -48 32 27 3 108 -65 176 l-39 40 24 49 c14 26 25 60 25 73 0 14
-18 78 -40 143 -22 65 -40 131 -40 147 0 28 0 28 98 40 53 7 119 19 146 27 54
16 66 11 66 -31 0 -24 78 -599 85 -631 3 -13 12 -23 20 -23 22 0 19 35 -29
395 l-42 320 29 27 c39 38 35 74 -9 71 l-31 -3 -23 195 c-13 107 -21 197 -17
201 4 4 69 17 144 30 281 47 388 67 396 74 8 7 -29 395 -39 411 -6 11 16 13
-239 -22z m-711 -939 c60 -11 112 -22 114 -25 10 -9 -33 -48 -73 -66 -45 -21
-112 -24 -148 -8 -29 13 -47 48 -47 89 0 37 5 37 154 10z"/>
<path d="M1430 4289 c-85 -4 -326 -15 -535 -24 -208 -9 -381 -18 -383 -20 -3
-2 5 -27 17 -54 25 -59 26 -83 5 -144 -16 -46 -15 -48 10 -91 30 -52 32 -71
10 -125 -15 -38 -15 -40 17 -96 l32 -56 -27 -62 -26 -61 31 -44 c30 -42 31
-46 19 -83 -7 -21 -11 -40 -9 -42 2 -2 105 2 229 9 337 18 330 19 330 -9 0
-43 -49 -168 -86 -218 -36 -49 -115 -106 -133 -95 -5 4 -12 19 -16 36 -3 16
-20 47 -36 69 -35 49 -36 65 -7 85 28 20 52 20 68 1 18 -22 50 -19 50 4 0 65
-100 69 -162 7 -25 -26 -28 -26 -55 -12 -28 14 -66 23 -128 31 -47 6 -153 -14
-198 -36 l-40 -21 -46 23 c-52 26 -110 30 -135 10 -20 -16 -22 -81 -3 -81 7 0
23 11 35 25 26 30 62 32 87 5 17 -18 16 -21 -5 -65 -12 -25 -24 -63 -27 -84
-5 -35 -10 -41 -48 -56 -56 -21 -120 -91 -136 -147 -20 -75 21 -179 64 -162
23 8 32 50 18 80 -29 64 4 181 60 209 15 8 30 15 32 15 3 0 7 -19 11 -42 15
-95 77 -183 161 -227 l40 -21 0 -78 c0 -74 1 -77 24 -80 24 -4 24 -4 18 72
l-5 76 64 0 64 0 0 -75 c0 -70 1 -75 21 -75 21 0 22 3 16 79 l-6 78 42 19 c90
40 163 146 174 250 6 51 6 53 51 70 86 33 212 185 253 308 l18 51 293 14 c161
7 294 14 296 16 2 2 -4 30 -13 64 -10 40 -13 78 -9 111 5 41 3 55 -17 86 -21
34 -22 41 -11 92 10 49 9 60 -10 103 l-21 49 21 49 20 49 -20 66 c-21 68 -20
78 17 169 7 16 -2 17 -101 16 -60 -1 -179 -6 -264 -10z m-665 -1299 c11 -18
-15 -79 -45 -104 -62 -51 -165 -40 -207 23 -13 19 -23 44 -23 57 0 22 4 23 78
27 168 7 191 7 197 -3z"/>
<path d="M2696 4084 c-3 -9 -6 -26 -6 -40 0 -30 11 -28 -285 -54 -132 -12
-247 -23 -255 -26 -8 -2 -41 -33 -74 -70 l-58 -65 57 -52 c32 -29 64 -56 71
-60 11 -6 98 1 477 38 l49 5 -6 -58 c-4 -31 -11 -124 -16 -207 -5 -82 -12
-199 -16 -258 l-7 -108 -56 -28 c-51 -26 -209 -81 -232 -81 -14 0 -11 32 9 69
12 25 29 38 62 50 75 28 91 93 35 145 -14 13 -25 33 -25 44 0 29 -18 72 -29
72 -6 0 -24 -13 -41 -30 -44 -43 -67 -39 -90 15 -24 55 -42 57 -86 10 -39 -43
-69 -45 -92 -5 -9 16 -23 32 -30 35 -17 6 -62 -16 -62 -31 0 -16 -39 -44 -62
-44 -10 0 -24 11 -30 25 -6 14 -19 25 -29 25 -24 0 -59 -47 -59 -80 0 -15 -7
-33 -14 -40 -8 -6 -20 -27 -26 -46 -16 -48 5 -79 68 -97 49 -15 92 -60 92 -99
0 -51 -189 32 -268 117 -28 30 -56 55 -62 55 -5 0 -10 -15 -10 -34 0 -42 40
-85 111 -122 54 -27 156 -54 207 -54 l32 0 0 -72 c0 -65 -6 -122 -25 -236 -5
-25 -17 -40 -56 -66 -31 -21 -46 -37 -39 -41 6 -4 46 -9 89 -12 89 -6 104 3
72 43 -15 19 -21 41 -21 79 0 98 64 155 175 155 107 0 165 -48 173 -143 4 -47
1 -57 -23 -86 -20 -22 -25 -35 -17 -43 11 -11 156 -8 167 4 4 4 -9 21 -28 37
-23 20 -38 46 -45 73 -17 69 -34 220 -30 262 l3 40 108 17 c59 9 121 22 139
28 17 6 33 9 36 7 2 -3 -1 -73 -7 -156 -6 -83 -11 -184 -11 -225 0 -67 2 -75
19 -75 21 0 19 -15 40 332 8 138 10 149 35 178 32 39 33 48 2 56 -22 5 -23 9
-19 67 23 319 30 408 35 412 5 5 76 -4 371 -50 l97 -15 79 40 c44 22 82 44 86
50 4 6 -22 44 -56 85 -50 59 -71 76 -99 82 -19 3 -132 20 -250 38 l-215 31 4
102 c3 86 1 102 -12 102 -8 0 -18 -7 -21 -16z m-406 -905 c0 -6 -17 -28 -38
-49 -76 -77 -193 -78 -267 -4 -19 19 -35 39 -35 44 0 5 59 11 133 13 72 1 149
4 170 5 22 1 37 -3 37 -9z"/>
<path d="M4933 3934 c-4 -27 -8 -127 -8 -222 0 -143 3 -174 15 -182 8 -5 85
-10 170 -10 l155 0 1 -108 c0 -95 3 -112 26 -157 14 -27 40 -64 57 -81 32 -33
108 -74 136 -74 12 0 15 -19 15 -113 0 -63 3 -169 7 -235 6 -119 6 -122 -15
-122 -26 0 -68 -37 -77 -67 -6 -23 -5 -23 84 -23 90 0 91 0 97 26 4 15 3 65
-2 111 -7 57 -6 87 1 91 14 10 249 15 292 7 l36 -6 -7 -57 c-4 -31 -9 -83 -13
-114 l-6 -58 97 0 96 0 0 28 c0 38 -12 53 -51 61 -33 7 -34 8 -34 54 1 26 2
130 3 231 l2 184 59 22 c69 25 122 76 147 140 20 48 25 149 11 213 l-8 37 201
0 200 0 -2 223 -3 222 -190 6 c-104 4 -481 10 -837 14 l-646 8 -9 -49z m1000
-424 l198 0 21 -47 c12 -27 23 -77 25 -113 3 -54 0 -72 -19 -105 -21 -36 -106
-105 -129 -105 -5 0 -9 15 -9 33 0 48 -19 67 -75 75 -56 8 -52 -2 -43 112 3
32 0 35 -25 38 -46 6 -59 -13 -55 -82 l3 -61 -73 -3 c-69 -3 -73 -2 -84 22 -9
21 -8 33 6 65 22 49 14 78 -24 86 -64 14 -87 -32 -54 -110 14 -34 14 -39 0
-53 -8 -8 -32 -18 -53 -21 -36 -6 -38 -8 -41 -46 -2 -22 -7 -43 -11 -48 -11
-11 -95 47 -127 89 -27 35 -29 43 -28 133 0 53 6 109 12 125 l13 29 187 -6
c103 -4 276 -7 385 -7z m-163 -496 c52 3 112 10 133 16 22 7 41 10 43 7 7 -6
-38 -117 -47 -117 -4 0 -10 4 -14 10 -3 5 -19 18 -35 30 l-28 20 -29 -40 c-15
-22 -33 -40 -39 -40 -5 0 -25 16 -44 35 l-34 35 -34 -26 c-38 -29 -44 -26 -60
32 -18 62 -17 62 41 47 36 -10 81 -13 147 -9z"/>
</g>
</svg>
